<?xml version="1.0" encoding="UTF-8"?>
<svg version="1.1" xmlns="http://www.w3.org/2000/svg" width="1415" height="2000">
<path d="M0 0 C1.12703339 0.00149048 2.25406677 0.00298096 3.41525269 0.0045166 C22.30764522 0.04918065 40.81778123 0.92690292 59.5625 3.3125 C60.69123535 3.44640137 61.8199707 3.58030273 62.98291016 3.71826172 C100.37384023 8.21563995 137.17682935 17.97750991 171.5625 33.3125 C172.40264648 33.68439453 173.24279297 34.05628906 174.10839844 34.43945312 C195.38287345 43.9196276 195.38287345 43.9196276 200.5625 50.3125 C201.45231031 54.59320908 201.11419032 58.27808066 199.0625 62.125 C193.27672773 67.18755074 187.21958979 69.30183128 179.5625 69.3125 C171.02822939 68.48719102 163.86356953 64.90755851 156.25 61.1875 C153.74670512 59.99424018 151.23748095 58.8138407 148.7265625 57.63671875 C147.79841484 57.20112389 147.79841484 57.20112389 146.85151672 56.75672913 C129.067791 48.45249097 110.55322729 43.12867737 91.5625 38.3125 C90.57024414 38.05839355 89.57798828 37.80428711 88.55566406 37.54248047 C76.33586376 34.47366849 64.05432517 32.57612852 51.5625 31.0625 C50.8753894 30.97923462 50.18827881 30.89596924 49.48034668 30.81018066 C33.49811912 28.904272 17.58743454 28.07385439 1.5 28.0625 C0.63010437 28.06182526 -0.23979126 28.06115051 -1.13604736 28.06045532 C-64.24453689 28.1374924 -135.89194973 44.60391041 -183.17578125 89.23046875 C-185.36476282 91.2455416 -187.62731944 93.02007298 -190 94.8125 C-201.7310534 104.07483488 -212.44920968 115.38411472 -221.4375 127.3125 C-221.84597168 127.84456055 -222.25444336 128.37662109 -222.67529297 128.92480469 C-230.61511941 139.28620481 -237.67942955 150.15023961 -244.4375 161.3125 C-244.83146973 161.96234863 -245.22543945 162.61219727 -245.63134766 163.28173828 C-259.07501894 185.71553116 -269.0826974 209.60830345 -277.4375 234.3125 C-277.94337646 235.80330078 -277.94337646 235.80330078 -278.45947266 237.32421875 C-292.37957799 279.01911389 -299.47588355 323.25936316 -303.125 366.9375 C-303.18584778 367.66242645 -303.24669556 368.38735291 -303.30938721 369.13424683 C-305.03407964 389.98273477 -305.67734219 410.76809313 -305.6875 431.6875 C-305.68817474 432.94895844 -305.68884949 434.21041687 -305.68954468 435.51010132 C-305.65851736 472.38940843 -303.37346387 508.89918958 -297.4375 545.3125 C-297.31010437 546.09475952 -297.18270874 546.87701904 -297.05145264 547.6829834 C-290.20455594 589.38114406 -279.57878006 629.58156152 -262.4375 668.3125 C-262.10572754 669.07771973 -261.77395508 669.84293945 -261.43212891 670.63134766 C-255.8423363 683.47948452 -248.72837009 695.36745805 -241.4375 707.3125 C-240.7878125 708.3953125 -240.138125 709.478125 -239.46875 710.59375 C-203.46542966 769.18738898 -144.54823719 809.26614709 -78.16650391 825.46044922 C-53.17012728 831.1719429 -28.01223562 833.59068953 -2.4375 834.3125 C-1.69419434 834.33586426 -0.95088867 834.35922852 -0.18505859 834.38330078 C25.10654118 835.0899691 50.66784793 832.59472513 75.5625 828.3125 C77.08399658 828.05194824 77.08399658 828.05194824 78.63623047 827.78613281 C102.86307741 823.49798487 126.54045294 816.33312756 148.5625 805.3125 C149.30918945 804.94656738 150.05587891 804.58063477 150.82519531 804.20361328 C153.03938699 803.11289032 155.24058633 802.00007696 157.4375 800.875 C158.36320801 800.40900391 158.36320801 800.40900391 159.30761719 799.93359375 C160.57593211 799.26139346 161.82072285 798.54319147 163.04004478 797.78574181 C165.5625 796.3125 165.5625 796.3125 168.99390602 794.78598976 C173.25910857 792.64537744 176.83625342 790.30183544 179.5625 786.3125 C182.27360445 778.04829599 181.3880633 768.78409799 181.24365234 760.20849609 C181.24956944 757.52703024 181.26102922 754.84611927 181.27940369 752.1647644 C181.30788678 746.40305481 181.28549144 740.64337633 181.22791672 734.88190842 C181.14475329 726.55233849 181.13928326 718.22411992 181.1523921 709.89421101 C181.1715698 696.37812384 181.12846414 682.86298852 181.04589844 669.34716797 C180.96585783 656.22275812 180.91533193 643.09877822 180.90429688 629.97412109 C180.90326018 628.75936775 180.90326018 628.75936775 180.90220253 627.52007394 C180.89891652 623.45711315 180.89620862 619.39415221 180.8937881 615.33119082 C180.87297993 581.65776723 180.75097014 547.98540085 180.5625 514.3125 C178.98244092 514.31526538 178.98244092 514.31526538 177.37046146 514.31808662 C151.73085454 514.3625003 126.09125261 514.39535847 100.45161533 514.41612434 C88.05244644 514.42643367 75.65330297 514.44048748 63.25415039 514.46337891 C52.44612849 514.48332325 41.63812501 514.49621894 30.83008522 514.50067699 C25.10817716 514.50328258 19.38632178 514.50939982 13.66443062 514.52396011 C8.27598967 514.53756047 2.88762297 514.54171765 -2.50083351 514.53871536 C-4.47566507 514.53926442 -6.45049917 514.5432272 -8.42531586 514.55091095 C-11.12851843 514.56091059 -13.83144326 514.55845063 -16.53465271 514.55300903 C-17.69763237 514.56174756 -17.69763237 514.56174756 -18.88410658 514.57066262 C-27.45687867 514.5242484 -34.23715633 513.51284367 -40.4375 507.3125 C-42.16899437 503.84951126 -41.77330307 500.10509936 -41.4375 496.3125 C-40.17933579 492.53800736 -38.2642864 490.92993035 -34.875 489.0625 C-30.44185717 487.35079162 -26.18427162 486.91856755 -21.47964478 486.7074585 C-20.69578766 486.66862415 -19.91193053 486.62978981 -19.10432017 486.58977866 C-9.18108706 486.1464378 0.74371613 486.20128021 10.67431641 486.24316406 C12.83145046 486.24841088 14.98858557 486.25323554 17.14572144 486.25767517 C22.94668551 486.27118862 28.74760363 486.2916305 34.54853868 486.31424046 C38.17863084 486.32818095 41.80872529 486.34079177 45.4388237 486.3529892 C58.11760999 486.3958735 70.79635569 486.44513804 83.47509766 486.49951172 C95.27570172 486.54992056 107.07628765 486.58504698 118.87696326 486.61344552 C129.03622843 486.63865454 139.19541258 486.67524298 149.35460794 486.72053123 C155.41098918 486.74729437 161.46729757 486.76931271 167.52373123 486.77954865 C173.20879931 486.78948858 178.89363399 486.81356475 184.57860184 486.84848213 C186.66188653 486.85886272 188.74520355 486.86419036 190.8285141 486.86404991 C193.67578509 486.86464277 196.52237588 486.88358905 199.36953735 486.90704346 C200.18996509 486.902878 201.01039283 486.89871254 201.85568202 486.89442086 C208.28323204 486.97837881 213.89401572 488.12297443 219 492.3125 C221.53881325 495.56218096 221.68876016 498.30493816 221.69672108 502.28762531 C221.70117892 503.32098336 221.70563676 504.3543414 221.71022969 505.41901332 C221.70995315 507.1273475 221.70995315 507.1273475 221.70967102 508.87019348 C221.71334771 510.07725486 221.7170244 511.28431624 221.7208125 512.52795523 C221.72994167 515.88447305 221.73454953 519.24094196 221.73720181 522.59746754 C221.74110432 526.21515801 221.7506826 529.83283432 221.75941467 533.45051575 C221.77917915 542.18944676 221.78924464 550.92837894 221.79814246 559.66732672 C221.80252483 563.78134346 221.80789172 567.8953589 221.81313133 572.00937462 C221.83014254 585.68252832 221.84463763 599.35568122 221.85188007 613.02884388 C221.85379 616.57725335 221.85571033 620.12566282 221.85766602 623.67407227 C221.85814976 624.55602387 221.8586335 625.43797548 221.8591319 626.34665289 C221.86743569 640.6399388 221.89277897 654.93314112 221.92524669 669.22639052 C221.95829887 683.89633714 221.97632711 698.56624125 221.97952431 713.23622531 C221.98169097 721.47481037 221.99046247 729.71327347 222.01598549 737.95182228 C222.03766725 744.96668532 222.04575536 751.98139678 222.03601871 758.99628953 C222.0314668 762.57581821 222.03341146 766.15503398 222.05278015 769.73451996 C222.07359332 773.61442921 222.06344973 777.49390491 222.05024719 781.37385559 C222.06121644 782.50605288 222.07218568 783.63825017 222.08348733 784.80475646 C222.03272685 790.96389053 221.69683326 794.63158003 217.5625 799.3125 C211.96880528 804.58110618 205.21701746 808.62576306 198.6875 812.625 C197.77258789 813.18550049 196.85767578 813.74600098 195.91503906 814.32348633 C153.73169449 839.90360044 107.02208839 852.41824928 58.5625 859.3125 C57.5621875 859.45558594 56.561875 859.59867188 55.53125 859.74609375 C40.63976148 861.79137535 25.57059856 862.00485582 10.5625 862.3125 C8.68908936 862.35552246 8.68908936 862.35552246 6.77783203 862.39941406 C-52.97807396 863.62097353 -111.62056132 852.85697246 -165.4375 826.3125 C-166.30020508 825.89532715 -167.16291016 825.4781543 -168.05175781 825.04833984 C-191.75344329 813.53676576 -213.49986066 797.58880868 -232.4375 779.3125 C-233.16163086 778.61560059 -233.88576172 777.91870117 -234.63183594 777.20068359 C-244.2029483 767.94027088 -253.3428291 758.66178763 -261.23876953 747.92138672 C-262.44052593 746.30843873 -263.67848488 744.73185156 -264.93359375 743.16015625 C-312.22226744 683.73838627 -333.66991035 606.42044467 -343.4375 532.3125 C-343.57608429 531.27684906 -343.57608429 531.27684906 -343.71746826 530.22027588 C-346.53932978 509.007767 -347.90821729 487.81901167 -348.6875 466.4375 C-348.72869965 465.31285339 -348.76989929 464.18820679 -348.81234741 463.02947998 C-349.61801944 440.26200902 -349.71600399 417.57017335 -348.625 394.8125 C-348.5808194 393.87060822 -348.53663879 392.92871643 -348.49111938 391.95828247 C-344.30660378 304.01699003 -326.34100331 215.28103114 -264.4375 119.3125 C-263.44556641 118.03632812 -263.44556641 118.03632812 -262.43359375 116.734375 C-255.44556372 107.81814099 -247.83046661 99.62918136 -239.76953125 91.6796875 C-237.7417189 89.62130512 -235.85887181 87.52185122 -234 85.3125 C-192.37209873 36.98920202 -122.95242645 13.7865481 -62.1875 4.0625 C-61.25655518 3.91127686 -60.32561035 3.76005371 -59.36645508 3.60424805 C-39.67876901 0.6506782 -19.87785073 -0.06566983 0 0 Z " fill="#000000" transform="translate(983.4375,580.6875)"/>
<path d="M0 0 C3.5597962 3.04002883 5.01046536 6.3819599 6.67089844 10.68359375 C6.98560089 11.45662842 7.30030334 12.22966309 7.62454224 13.02612305 C8.6633227 15.58697448 9.67845483 18.15655125 10.69433594 20.7265625 C11.42324588 22.53355747 12.15408082 24.33977698 12.88671875 26.14526367 C14.05005159 29.0137665 15.2116933 31.88287311 16.36706543 34.7545929 C20.64976057 45.39881241 25.07257447 55.98371372 29.49920654 66.56869507 C30.79478284 69.6678293 32.08807645 72.76790428 33.38037109 75.8684082 C33.98983078 77.32974434 33.98983078 77.32974434 34.61160278 78.82060242 C35.39411572 80.6999015 36.17467788 82.58001429 36.95309448 84.46101379 C38.51733514 88.23513924 40.08795736 91.99809248 41.79003906 95.71240234 C46.0463675 105.15741177 46.0463675 105.15741177 44.06933594 110.9140625 C42.20209059 114.91346958 40.10791425 118.75573188 37.94433594 122.6015625 C37.35410645 123.66632813 36.76387695 124.73109375 36.15576172 125.828125 C34.99152725 127.92265748 33.82225287 130.0143981 32.64746094 132.10302734 C31.33322764 134.44400541 30.03896423 136.79372264 28.75683594 139.15234375 C28.15871094 140.22871094 27.56058594 141.30507813 26.94433594 142.4140625 C26.44675781 143.31125 25.94917969 144.2084375 25.43652344 145.1328125 C24.98535156 145.720625 24.53417969 146.3084375 24.06933594 146.9140625 C23.07933594 146.9140625 22.08933594 146.9140625 21.06933594 146.9140625 C18.23228923 140.22813248 15.39924039 133.54051875 12.56933594 126.8515625 C12.14459991 125.84763458 11.71986389 124.84370667 11.28225708 123.80935669 C4.40174494 107.53524273 -2.36685765 91.21822423 -9.02832031 74.85327148 C-9.34598862 74.07419434 -9.66365692 73.29511719 -9.99095154 72.49243164 C-10.57875125 71.05024662 -11.16517291 69.60749879 -11.74989319 68.1640625 C-13.03248131 65.01675353 -14.34771087 61.92315119 -15.93066406 58.9140625 C-20.85900442 69.35368155 -25.168009 80.05233029 -29.55566406 90.7265625 C-30.39708506 92.76921215 -31.23872335 94.81177231 -32.08056641 96.85424805 C-33.82833182 101.09518765 -35.57516706 105.3365085 -37.32128906 109.578125 C-41.39172307 119.46411228 -45.47382551 129.34528006 -49.55566406 139.2265625 C-49.94882812 140.17853516 -50.34199219 141.13050781 -50.74707031 142.11132812 C-56.34010972 155.65381863 -61.94274429 169.1922999 -67.55566406 182.7265625 C-67.90325775 183.56477539 -68.25085144 184.40298828 -68.60897827 185.26660156 C-72.09782956 193.67947756 -75.58846372 202.09160868 -79.08345032 210.50193787 C-80.84579412 214.74315873 -82.60723287 218.98475495 -84.36816406 223.2265625 C-84.71769135 224.06847137 -85.06721863 224.91038025 -85.42733765 225.77780151 C-90.57250097 238.175962 -95.66834895 250.59365475 -100.73928833 263.02233887 C-110.36277513 286.60821956 -120.18699008 310.10704056 -130.05566406 333.59118652 C-138.78768696 354.37237773 -147.47446564 375.16936761 -155.99316406 396.0390625 C-179.64267456 453.95650556 -179.64267456 453.95650556 -190.68640137 478.71627808 C-195.75022852 490.08211319 -200.4774701 501.54346226 -205.04727173 513.11868286 C-205.29238495 513.73951752 -205.53749817 514.36035217 -205.79003906 515 C-206.03813324 515.6286496 -206.28622742 516.25729919 -206.5418396 516.90499878 C-209.82686928 525.20881294 -213.22420225 533.46682141 -216.61816406 541.7265625 C-216.95355194 542.54321381 -217.28893982 543.35986511 -217.63449097 544.20126343 C-223.22660004 557.81342997 -228.86060629 571.40813996 -234.50405884 584.99908447 C-239.96475539 598.15048564 -245.3882498 611.31664476 -250.78564453 624.49414062 C-256.30892587 637.97784778 -261.86349856 651.44841891 -267.43066406 664.9140625 C-273.34432156 679.21928067 -279.24588404 693.52930504 -285.11816406 707.8515625 C-285.6066835 709.04300369 -285.6066835 709.04300369 -286.10507202 710.2585144 C-288.38108769 715.81002852 -290.65601339 721.36198898 -292.93066406 726.9140625 C-295.53405735 733.26854634 -298.13799356 739.62280704 -300.74316406 745.9765625 C-301.06627563 746.76464294 -301.38938721 747.55272339 -301.72229004 748.36468506 C-308.18507835 764.12430393 -314.68629081 779.86800217 -321.19750977 795.60766602 C-321.57270248 796.51516098 -321.9478952 797.42265594 -322.3344574 798.35765076 C-323.07876137 800.15726056 -323.82383817 801.95655094 -324.56971741 803.75550842 C-326.52600803 808.48122379 -328.45731617 813.21554913 -330.35693359 817.96435547 C-330.75715225 818.95930527 -331.15737091 819.95425507 -331.56971741 820.97935486 C-332.33227536 822.87760125 -333.08949278 824.77800535 -333.84031677 826.68092346 C-336.87944303 834.22662528 -339.56271971 839.7695938 -346.93066406 843.9140625 C-354.8935825 846.47781662 -364.50533214 845.69505974 -371.93066406 841.9140625 C-375.38386995 839.32415809 -376.68532474 837.90730815 -377.72167969 833.71166992 C-377.96149311 829.35384536 -376.97134566 826.31668268 -375.27441406 822.40234375 C-374.98120773 821.68974396 -374.6880014 820.97714417 -374.38591003 820.24295044 C-373.41633728 817.8973622 -372.42365774 815.56232049 -371.43066406 813.2265625 C-370.73880868 811.56516129 -370.0484861 809.90312104 -369.35961914 808.24047852 C-367.57808163 803.95082623 -365.77785079 799.6692929 -363.97271729 795.38952637 C-362.37868381 791.60279821 -360.80067224 787.8094551 -359.22363281 784.015625 C-357.40571821 779.64446267 -355.58656246 775.27385127 -353.75952148 770.90649414 C-348.85776617 759.18450609 -344.0414447 747.42873095 -339.24316406 735.6640625 C-332.8321466 719.94780314 -326.34672811 704.26413332 -319.80566406 688.6015625 C-313.12618099 672.60647042 -306.4941409 656.59345394 -299.92919922 640.55102539 C-295.2704847 629.16837873 -290.58064969 617.79889028 -285.87844849 606.43414307 C-278.84993064 589.44600646 -271.86801314 572.43963286 -264.93066406 555.4140625 C-255.34111297 531.88202496 -245.65627262 508.39015863 -235.93066406 484.9140625 C-235.56434875 484.02974548 -235.19803345 483.14542847 -234.82061768 482.23431396 C-229.18163965 468.62198108 -223.53580868 455.01249342 -217.88891602 441.40344238 C-215.44409962 435.51131459 -212.99966869 429.61902705 -210.55566406 423.7265625 C-210.20874512 422.89020264 -209.86182617 422.05384277 -209.50439453 421.19213867 C-203.3490765 406.35123641 -197.21587445 391.50124871 -191.08743286 376.64923096 C-186.21216007 364.83540488 -181.31654469 353.0305287 -176.38684082 341.23931885 C-169.7586688 325.38412658 -163.25048922 309.48152771 -156.76846313 293.56607056 C-150.95238079 279.28752144 -145.09794519 265.02597497 -139.18066406 250.7890625 C-133.77429641 237.78093068 -128.39484699 224.76242297 -123.05566406 211.7265625 C-117.26571514 197.59220676 -111.45162893 183.46801607 -105.61816406 169.3515625 C-105.22214996 168.39318481 -104.82613586 167.43480713 -104.41812134 166.4473877 C-101.18359193 158.62005791 -97.94784064 150.79323338 -94.71203613 142.96643066 C-86.03515848 121.978249 -77.36084191 100.98913586 -68.74316406 79.9765625 C-68.42086823 79.19093933 -68.09857239 78.40531616 -67.76651001 77.59588623 C-64.41758614 69.43216751 -61.07323701 61.2666143 -57.73991394 53.09651184 C-56.31441068 49.60353588 -54.88684187 46.11140584 -53.45907593 42.61935425 C-52.79009424 40.98153129 -52.12209288 39.34330745 -51.45523071 37.70462036 C-49.30834343 32.42922782 -47.13657081 27.16506129 -44.93066406 21.9140625 C-44.4245459 20.70632172 -44.4245459 20.70632172 -43.90820312 19.47418213 C-42.87608598 17.02801399 -41.82789826 14.58937619 -40.77441406 12.15234375 C-40.30835754 11.04514229 -40.30835754 11.04514229 -39.83288574 9.91557312 C-37.48825551 4.56344321 -34.81691626 -0.5318017 -29.49316406 -3.3984375 C-19.31640059 -6.12878868 -8.86009858 -6.30628809 0 0 Z " fill="#000000" transform="translate(670.9306640625,524.0859375)"/>
<path d="M0 0 C0.99 0 1.98 0 3 0 C3.45624756 1.11818115 3.91249512 2.2363623 4.38256836 3.38842773 C14.80781526 28.93256293 25.30388194 54.44593931 35.89111328 79.92333984 C39.07736596 87.59186976 42.25662752 95.26329867 45.43649292 102.93447876 C47.20738281 107.20643491 48.97871345 111.4782083 50.75 115.75 C51.45833545 117.45833246 52.16666878 119.16666579 52.875 120.875 C53.225625 121.720625 53.57625 122.56625 53.9375 123.4375 C55 126 56.0625 128.5625 57.125 131.125 C57.47561493 131.97059982 57.82622986 132.81619965 58.18746948 133.68742371 C58.89590708 135.3960103 59.60434214 137.10459795 60.31277466 138.81318665 C62.08199191 143.08015374 63.85125309 147.34710261 65.62060547 151.61401367 C68.82745247 159.34766115 72.03396558 167.08144627 75.23886108 174.81590271 C77.03402492 179.14819125 78.82944349 183.48037419 80.625 187.8125 C80.97951233 188.66784332 81.33402466 189.52318665 81.69927979 190.40444946 C86.27563694 201.44465349 90.86440279 212.47958834 95.46618652 223.50921631 C102.28430344 239.85117566 109.05217749 256.21358375 115.80761719 272.58154297 C121.06931246 285.32967272 126.3408714 298.0736523 131.625 310.8125 C131.9718988 311.64880951 132.31879761 312.48511902 132.6762085 313.34677124 C134.4196883 317.549783 136.16340342 321.75269709 137.90722656 325.95556641 C141.0846607 333.6139736 144.25997729 341.27325883 147.43548584 348.9324646 C149.20690689 353.20501109 150.97846002 357.47750282 152.75 361.75 C153.45833397 363.45833307 154.1666673 365.1666664 154.875 366.875 C155.225625 367.720625 155.57625 368.56625 155.9375 369.4375 C168.33333333 399.33333333 180.72916667 429.22916667 193.125 459.125 C193.47563004 459.97063507 193.82626007 460.81627014 194.18751526 461.68753052 C194.89580366 463.39575967 195.60408613 465.10399128 196.31236267 466.81222534 C198.08383489 471.08467286 199.85541028 475.35707754 201.62719727 479.62939453 C204.80711059 487.29741366 207.98632046 494.96572004 211.16162109 502.63565063 C219.03201242 521.64641305 226.92942212 540.64552118 234.875 559.625 C235.26412567 560.55463562 235.65325134 561.48427124 236.0541687 562.44207764 C237.15805979 565.07876074 238.26248217 567.71522045 239.3671875 570.3515625 C239.8535392 571.51283661 239.8535392 571.51283661 240.34971619 572.6975708 C240.65567215 573.4272406 240.96162811 574.1569104 241.27685547 574.90869141 C241.56606873 575.59908508 241.85528198 576.28947876 242.15325928 577.00079346 C242.97704941 578.94581227 243.82405683 580.87954538 244.67236328 582.81396484 C246.14015597 586.3363434 246.85864038 589.18329037 247 593 C245.26537045 597.14383725 242.72391194 599.5456035 239 602 C230.91237359 605.23505056 222.3975496 604.77529031 214.16796875 602.33984375 C208.24574955 598.67980558 205.01734677 592.7183952 202.58203125 586.40234375 C202.28728912 585.67219559 201.992547 584.94204742 201.68887329 584.18977356 C201.05209794 582.60764351 200.42153055 581.02300334 199.79660034 579.43615723 C198.78747022 576.87394873 197.76223062 574.31870965 196.73266602 571.76464844 C195.25278526 568.09160966 193.7785646 564.41637086 192.30761719 560.73974609 C188.42093488 551.04785686 184.42595292 541.40033266 180.4375 531.75 C180.03504059 530.77465302 179.63258118 529.79930603 179.21792603 528.79440308 C173.78286547 515.62506883 168.25088113 502.50261065 162.60324097 489.42318726 C155.0032011 471.81066223 147.73267119 454.06275907 140.43128967 436.3249054 C136.78849837 427.47832893 133.12016921 418.64254206 129.4375 409.8125 C129.13871948 409.09610352 128.83993896 408.37970703 128.53210449 407.64160156 C126.68353011 403.2103906 124.83311935 398.77994861 122.98187256 394.34985352 C121.95849643 391.90067213 120.93552673 389.45132125 119.91259766 387.00195312 C117.69314706 381.68820998 115.47198476 376.37518392 113.25 371.0625 C112.87894135 370.1751416 112.50788269 369.2877832 112.12557983 368.37353516 C107.72285856 357.84792747 103.29876414 347.3317129 98.84375 336.828125 C98.41640564 335.81967026 97.98906128 334.81121552 97.54876709 333.77220154 C95.49259511 328.92005494 93.4334895 324.06920485 91.36816406 319.22094727 C87.26870754 309.57083722 83.36396192 299.88696337 79.75396729 290.04373169 C72.68152178 270.87289858 65.43974881 251.74694326 57.04614258 233.11230469 C53.51399088 225.25102284 50.22043722 217.30523114 47 209.3125 C45.90149378 206.58835907 44.80260177 203.86437437 43.703125 201.140625 C43.4144455 200.42543701 43.12576599 199.71024902 42.82833862 198.97338867 C38.85558628 189.14786698 34.79997437 179.35637674 30.75 169.5625 C30.34565735 168.58444397 29.9413147 167.60638794 29.52471924 166.59869385 C20.28649004 144.25512306 11.02369066 121.92172035 1.75488281 99.59082031 C1.37925705 98.68565674 1.00363129 97.78049316 0.61662292 96.84790039 C-0.14079504 95.02332547 -0.89867556 93.1989425 -1.6570282 91.37475586 C-3.49461329 86.95233908 -5.32376114 82.52684661 -7.13305664 78.09277344 C-10.03431644 71.00043473 -12.94123553 63.96829315 -16.34765625 57.1015625 C-22.8646481 43.76397509 -22.8646481 43.76397509 -21.2421875 38.05078125 C-19.78389742 34.558103 -17.74298327 31.54778332 -15.59326172 28.44726562 C-12.54535394 23.76564939 -10.05426011 18.75052758 -7.45632935 13.80944824 C-5.91999366 10.90258366 -4.34999127 8.01450575 -2.78125 5.125 C-2.24564453 4.13757813 -1.71003906 3.15015625 -1.15820312 2.1328125 C-0.77599609 1.42898438 -0.39378906 0.72515625 0 0 Z " fill="#000000" transform="translate(770,765)"/>
</svg>
